<svg id="Layer_1" data-name="Layer 1" xmlns="http://www.w3.org/2000/svg" xmlns:xlink="http://www.w3.org/1999/xlink" viewBox="0 0 588.47 588.47"><defs><style>.cls-1{fill:url(#New_Gradient_Swatch);}.cls-2{fill:#fff;}</style><linearGradient id="New_Gradient_Swatch" x1="312.88" y1="-43.46" x2="250.26" y2="1090.7" gradientUnits="userSpaceOnUse"><stop offset="0" stop-color="#27b2ff"/><stop offset="1" stop-color="#2c6ba7"/></linearGradient></defs><circle class="cls-1" cx="294.24" cy="294.24" r="294.24"/><rect class="cls-2" x="238.66" y="452.36" width="118.39" height="28.41" rx="3.72"/><path class="cls-2" d="M344.15,599.6l-12.6,20a4.47,4.47,0,0,1-3.77,2.08H291.47a4.42,4.42,0,0,1-3.76-2.08l-12.63-20a4.45,4.45,0,0,1,3.76-6.83h61.54A4.45,4.45,0,0,1,344.15,599.6Z" transform="translate(-11.76 -101.76)"/><path class="cls-2" d="M473.81,303a166.86,166.86,0,0,0-25.22-59.93,168,168,0,0,0-73.74-60.72,166.07,166.07,0,0,0-31.46-9.77,169.51,169.51,0,0,0-67.56,0,166.86,166.86,0,0,0-59.93,25.22,168,168,0,0,0-60.72,73.74,167.41,167.41,0,0,0,15.45,159,168.87,168.87,0,0,0,45.27,45.27c8.92,6,18.33,53.77,28.35,58S360,538.28,370,534s24.36-52.28,33.28-58.3a168.48,168.48,0,0,0,45.27-45.27A168.17,168.17,0,0,0,473.81,303ZM306.52,240.33a6.89,6.89,0,0,1-4.91-.29,83.5,83.5,0,0,0-53.73,156.18,6.9,6.9,0,1,1-8,10.87A96.84,96.84,0,0,1,303.7,226.86a6.92,6.92,0,0,1,2.82,13.47Z" transform="translate(-11.76 -101.76)"/></svg>